<svg>
  <defs/>
  <path fill="#a0d0c0" d="M0 0h1v1H0z"/>
  <path fill="#70c0a0" d="M1 0h1v1H1zm1 0h1v1H2z"/>
  <path fill="#40b080" d="M3 0h1v1H3z"/>
  <path fill="#70c0a0" d="M4 0h1v1H4zm1 0h1v1H5zm1 0h1v1H6zm1 0h1v1H7z"/>
  <path fill="#a0d0c0" d="M8 0h1v1H8z"/>
  <path fill="#70c0a0" d="M9 0h1v1H9zm1 0h1v1h-1zm1 0h1v1h-1zm1 0h1v1h-1zm1 0h1v1h-1zm1 0h1v1h-1zm1 0h1v1h-1zM0 1h1v1H0zm1 0h1v1H1zm1 0h1v1H2zm1 0h1v1H3zm1 0h1v1H4z"/>
  <path fill="#18a068" d="M5 1h1v1H5z"/>
  <path fill="#70c0a0" d="M6 1h1v1H6zm1 0h1v1H7zm1 0h1v1H8zm1 0h1v1H9zm1 0h1v1h-1zm1 0h1v1h-1zm1 0h1v1h-1zm1 0h1v1h-1zm1 0h1v1h-1zm1 0h1v1h-1zM0 2h1v1H0zm1 0h1v1H1zm1 0h1v1H2zm1 0h1v1H3zm1 0h1v1H4zm1 0h1v1H5zm1 0h1v1H6z"/>
  <path fill="#40b080" d="M7 2h1v1H7z"/>
  <path fill="#70c0a0" d="M8 2h1v1H8zm1 0h1v1H9zm1 0h1v1h-1zm1 0h1v1h-1zm1 0h1v1h-1zm1 0h1v1h-1zm1 0h1v1h-1zm1 0h1v1h-1zM0 3h1v1H0zm1 0h1v1H1zm1 0h1v1H2z"/>
  <path fill="#a0d0c0" d="M3 3h1v1H3z"/>
  <path fill="#70c0a0" d="M4 3h1v1H4zm1 0h1v1H5zm1 0h1v1H6zm1 0h1v1H7zm1 0h1v1H8zm1 0h1v1H9zm1 0h1v1h-1z"/>
  <path fill="#a0d0c0" d="M11 3h1v1h-1z"/>
  <path fill="#70c0a0" d="M12 3h1v1h-1zm1 0h1v1h-1zm1 0h1v1h-1zm1 0h1v1h-1zM0 4h1v1H0zm1 0h1v1H1zm1 0h1v1H2zm1 0h1v1H3zm1 0h1v1H4z"/>
  <path fill="#a0d0c0" d="M5 4h1v1H5z"/>
  <path fill="#70c0a0" d="M6 4h1v1H6zm1 0h1v1H7z"/>
  <path fill="#18a068" d="M8 4h1v1H8z"/>
  <path fill="#70c0a0" d="M9 4h1v1H9zm1 0h1v1h-1zm1 0h1v1h-1zm1 0h1v1h-1z"/>
  <path fill="#a0d0c0" d="M13 4h1v1h-1z"/>
  <path fill="#70c0a0" d="M14 4h1v1h-1zm1 0h1v1h-1zM0 5h1v1H0zm1 0h1v1H1zm1 0h1v1H2zm1 0h1v1H3zm1 0h1v1H4zm1 0h1v1H5zm1 0h1v1H6zm1 0h1v1H7zm1 0h1v1H8zm1 0h1v1H9zm1 0h1v1h-1zm1 0h1v1h-1zm1 0h1v1h-1zm1 0h1v1h-1zm1 0h1v1h-1zm1 0h1v1h-1zM0 6h1v1H0z"/>
  <path fill="#40b080" d="M1 6h1v1H1z"/>
  <path fill="#70c0a0" d="M2 6h1v1H2zm1 0h1v1H3zm1 0h1v1H4zm1 0h1v1H5zm1 0h1v1H6zm1 0h1v1H7zm1 0h1v1H8z"/>
  <path fill="#40b080" d="M9 6h1v1H9z"/>
  <path fill="#70c0a0" d="M10 6h1v1h-1zm1 0h1v1h-1zm1 0h1v1h-1zm1 0h1v1h-1zm1 0h1v1h-1zm1 0h1v1h-1zM0 7h1v1H0zm1 0h1v1H1zm1 0h1v1H2zm1 0h1v1H3zm1 0h1v1H4zm1 0h1v1H5zm1 0h1v1H6zm1 0h1v1H7zm1 0h1v1H8zm1 0h1v1H9zm1 0h1v1h-1zm1 0h1v1h-1zm1 0h1v1h-1zm1 0h1v1h-1zm1 0h1v1h-1zm1 0h1v1h-1z"/>
  <path fill="#a0d0c0" d="M0 8h1v1H0z"/>
  <path fill="#70c0a0" d="M1 8h1v1H1zm1 0h1v1H2zm1 0h1v1H3zm1 0h1v1H4zm1 0h1v1H5zm1 0h1v1H6zm1 0h1v1H7z"/>
  <path fill="#a0d0c0" d="M8 8h1v1H8z"/>
  <path fill="#70c0a0" d="M9 8h1v1H9zm1 0h1v1h-1z"/>
  <path fill="#40b080" d="M11 8h1v1h-1z"/>
  <path fill="#70c0a0" d="M12 8h1v1h-1zm1 0h1v1h-1zm1 0h1v1h-1zm1 0h1v1h-1zM0 9h1v1H0zm1 0h1v1H1zm1 0h1v1H2zm1 0h1v1H3zm1 0h1v1H4zm1 0h1v1H5zm1 0h1v1H6zm1 0h1v1H7zm1 0h1v1H8zm1 0h1v1H9zm1 0h1v1h-1zm1 0h1v1h-1zm1 0h1v1h-1z"/>
  <path fill="#18a068" d="M13 9h1v1h-1z"/>
  <path fill="#70c0a0" d="M14 9h1v1h-1zm1 0h1v1h-1zM0 10h1v1H0zm1 0h1v1H1zm1 0h1v1H2zm1 0h1v1H3zm1 0h1v1H4zm1 0h1v1H5zm1 0h1v1H6zm1 0h1v1H7zm1 0h1v1H8zm1 0h1v1H9zm1 0h1v1h-1zm1 0h1v1h-1zm1 0h1v1h-1zm1 0h1v1h-1zm1 0h1v1h-1z"/>
  <path fill="#40b080" d="M15 10h1v1h-1z"/>
  <path fill="#70c0a0" d="M0 11h1v1H0zm1 0h1v1H1zm1 0h1v1H2z"/>
  <path fill="#a0d0c0" d="M3 11h1v1H3z"/>
  <path fill="#70c0a0" d="M4 11h1v1H4zm1 0h1v1H5zm1 0h1v1H6zm1 0h1v1H7zm1 0h1v1H8zm1 0h1v1H9zm1 0h1v1h-1z"/>
  <path fill="#a0d0c0" d="M11 11h1v1h-1z"/>
  <path fill="#70c0a0" d="M12 11h1v1h-1zm1 0h1v1h-1zm1 0h1v1h-1zm1 0h1v1h-1z"/>
  <path fill="#18a068" d="M0 12h1v1H0z"/>
  <path fill="#70c0a0" d="M1 12h1v1H1zm1 0h1v1H2zm1 0h1v1H3zm1 0h1v1H4z"/>
  <path fill="#a0d0c0" d="M5 12h1v1H5z"/>
  <path fill="#70c0a0" d="M6 12h1v1H6zm1 0h1v1H7zm1 0h1v1H8zm1 0h1v1H9zm1 0h1v1h-1zm1 0h1v1h-1zm1 0h1v1h-1z"/>
  <path fill="#a0d0c0" d="M13 12h1v1h-1z"/>
  <path fill="#70c0a0" d="M14 12h1v1h-1zm1 0h1v1h-1zM0 13h1v1H0zm1 0h1v1H1zm1 0h1v1H2zm1 0h1v1H3zm1 0h1v1H4zm1 0h1v1H5zm1 0h1v1H6zm1 0h1v1H7zm1 0h1v1H8zm1 0h1v1H9zm1 0h1v1h-1zm1 0h1v1h-1zm1 0h1v1h-1zm1 0h1v1h-1zm1 0h1v1h-1zm1 0h1v1h-1zM0 14h1v1H0z"/>
  <path fill="#40b080" d="M1 14h1v1H1z"/>
  <path fill="#70c0a0" d="M2 14h1v1H2zm1 0h1v1H3zm1 0h1v1H4zm1 0h1v1H5zm1 0h1v1H6zm1 0h1v1H7zm1 0h1v1H8z"/>
  <path fill="#40b080" d="M9 14h1v1H9z"/>
  <path fill="#70c0a0" d="M10 14h1v1h-1zm1 0h1v1h-1zm1 0h1v1h-1zm1 0h1v1h-1zm1 0h1v1h-1zm1 0h1v1h-1zM0 15h1v1H0zm1 0h1v1H1zm1 0h1v1H2zm1 0h1v1H3zm1 0h1v1H4zm1 0h1v1H5zm1 0h1v1H6zm1 0h1v1H7zm1 0h1v1H8zm1 0h1v1H9zm1 0h1v1h-1zm1 0h1v1h-1zm1 0h1v1h-1zm1 0h1v1h-1zm1 0h1v1h-1zm1 0h1v1h-1z"/>
</svg>
