<svg>
  <path fill="#388830" d="M16 0h1v1h-1zM17 0h1v1h-1z"/>
  <path fill="#385000" d="M15 1h1v1h-1z"/>
  <path fill="#b0f880" d="M16 1h1v1h-1zM17 1h1v1h-1z"/>
  <path fill="#385000" d="M18 1h1v1h-1zM13 2h1v1h-1zM14 2h1v1h-1z"/>
  <path fill="#388830" d="M15 2h1v1h-1z"/>
  <path fill="#b0f880" d="M16 2h1v1h-1zM17 2h1v1h-1z"/>
  <path fill="#388830" d="M18 2h1v1h-1z"/>
  <path fill="#385000" d="M19 2h1v1h-1zM20 2h1v1h-1z"/>
  <path fill="#388830" d="M11 3h1v1h-1zM12 3h1v1h-1zM13 3h1v1h-1z"/>
  <path fill="#b0f880" d="M14 3h1v1h-1z"/>
  <path fill="#388830" d="M15 3h1v1h-1z"/>
  <path fill="#b0f880" d="M16 3h1v1h-1z"/>
  <path fill="#80c060" d="M17 3h1v1h-1z"/>
  <path fill="#388830" d="M18 3h1v1h-1z"/>
  <path fill="#b0f880" d="M19 3h1v1h-1z"/>
  <path fill="#388830" d="M20 3h1v1h-1zM21 3h1v1h-1zM22 3h1v1h-1zM11 4h1v1h-1z"/>
  <path fill="#b0f880" d="M12 4h1v1h-1z"/>
  <path fill="#388830" d="M13 4h1v1h-1z"/>
  <path fill="#b0f880" d="M14 4h1v1h-1z"/>
  <path fill="#388830" d="M15 4h1v1h-1z"/>
  <path fill="#b0f880" d="M16 4h1v1h-1z"/>
  <path fill="#80c060" d="M17 4h1v1h-1z"/>
  <path fill="#388830" d="M18 4h1v1h-1z"/>
  <path fill="#b0f880" d="M19 4h1v1h-1z"/>
  <path fill="#388830" d="M20 4h1v1h-1z"/>
  <path fill="#b0f880" d="M21 4h1v1h-1z"/>
  <path fill="#388830" d="M22 4h1v1h-1zM10 5h1v1h-1zM11 5h1v1h-1zM12 5h1v1h-1z"/>
  <path fill="#80c060" d="M13 5h1v1h-1z"/>
  <path fill="#385000" d="M14 5h1v1h-1z"/>
  <path fill="#b0f880" d="M15 5h1v1h-1zM16 5h1v1h-1z"/>
  <path fill="#80c060" d="M17 5h1v1h-1zM18 5h1v1h-1zM19 5h1v1h-1z"/>
  <path fill="#385000" d="M20 5h1v1h-1z"/>
  <path fill="#b0f880" d="M21 5h1v1h-1z"/>
  <path fill="#388830" d="M22 5h1v1h-1zM23 5h1v1h-1zM24 5h1v1h-1z"/>
  <path fill="#40b080" d="M7 6h1v1H7z"/>
  <path fill="#18a068" d="M8 6h1v1H8z"/>
  <path fill="#388830" d="M9 6h1v1H9z"/>
  <path fill="#b0f880" d="M10 6h1v1h-1zM11 6h1v1h-1zM12 6h1v1h-1z"/>
  <path fill="#80c060" d="M13 6h1v1h-1z"/>
  <path fill="#388830" d="M14 6h1v1h-1z"/>
  <path fill="#b0f880" d="M15 6h1v1h-1zM16 6h1v1h-1z"/>
  <path fill="#80c060" d="M17 6h1v1h-1zM18 6h1v1h-1zM19 6h1v1h-1z"/>
  <path fill="#388830" d="M20 6h1v1h-1z"/>
  <path fill="#80c060" d="M21 6h1v1h-1z"/>
  <path fill="#b0f880" d="M22 6h1v1h-1zM23 6h1v1h-1zM24 6h1v1h-1z"/>
  <path fill="#18a068" d="M25 6h1v1h-1z"/>
  <path fill="#40b080" d="M26 6h1v1h-1zM5 7h1v1H5z"/>
  <path fill="#18a068" d="M6 7h1v1H6zM7 7h1v1H7zM8 7h1v1H8z"/>
  <path fill="#385000" d="M9 7h1v1H9z"/>
  <path fill="#80c060" d="M10 7h1v1h-1z"/>
  <path fill="#b0f880" d="M11 7h1v1h-1z"/>
  <path fill="#80c060" d="M12 7h1v1h-1z"/>
  <path fill="#b0f880" d="M13 7h1v1h-1zM14 7h1v1h-1zM15 7h1v1h-1zM16 7h1v1h-1zM17 7h1v1h-1zM18 7h1v1h-1z"/>
  <path fill="#80c060" d="M19 7h1v1h-1zM20 7h1v1h-1z"/>
  <path fill="#b0f880" d="M21 7h1v1h-1z"/>
  <path fill="#388830" d="M22 7h1v1h-1z"/>
  <path fill="#b0f880" d="M23 7h1v1h-1z"/>
  <path fill="#80c060" d="M24 7h1v1h-1z"/>
  <path fill="#18a068" d="M25 7h1v1h-1zM26 7h1v1h-1zM27 7h1v1h-1z"/>
  <path fill="#40b080" d="M28 7h1v1h-1zM3 8h1v1H3z"/>
  <path fill="#18a068" d="M4 8h1v1H4zM5 8h1v1H5zM6 8h1v1H6zM7 8h1v1H7z"/>
  <path fill="#388830" d="M8 8h1v1H8z"/>
  <path fill="#385000" d="M9 8h1v1H9zM10 8h1v1h-1z"/>
  <path fill="#388830" d="M11 8h1v1h-1z"/>
  <path fill="#b0f880" d="M12 8h1v1h-1zM13 8h1v1h-1zM14 8h1v1h-1zM15 8h1v1h-1zM16 8h1v1h-1zM17 8h1v1h-1zM18 8h1v1h-1zM19 8h1v1h-1z"/>
  <path fill="#80c060" d="M20 8h1v1h-1z"/>
  <path fill="#b0f880" d="M21 8h1v1h-1zM22 8h1v1h-1z"/>
  <path fill="#388830" d="M23 8h1v1h-1z"/>
  <path fill="#385000" d="M24 8h1v1h-1z"/>
  <path fill="#388830" d="M25 8h1v1h-1z"/>
  <path fill="#18a068" d="M26 8h1v1h-1zM27 8h1v1h-1zM28 8h1v1h-1zM29 8h1v1h-1z"/>
  <path fill="#40b080" d="M30 8h1v1h-1zM2 9h1v1H2z"/>
  <path fill="#18a068" d="M3 9h1v1H3z"/>
  <path fill="#388830" d="M4 9h1v1H4z"/>
  <path fill="#18a068" d="M5 9h1v1H5zM6 9h1v1H6z"/>
  <path fill="#388830" d="M7 9h1v1H7z"/>
  <path fill="#b0f880" d="M8 9h1v1H8zM9 9h1v1H9z"/>
  <path fill="#385000" d="M10 9h1v1h-1z"/>
  <path fill="#b0f880" d="M11 9h1v1h-1zM12 9h1v1h-1z"/>
  <path fill="#388830" d="M13 9h1v1h-1z"/>
  <path fill="#b0f880" d="M14 9h1v1h-1zM15 9h1v1h-1zM16 9h1v1h-1zM17 9h1v1h-1zM18 9h1v1h-1zM19 9h1v1h-1zM20 9h1v1h-1z"/>
  <path fill="#388830" d="M21 9h1v1h-1z"/>
  <path fill="#b0f880" d="M22 9h1v1h-1zM23 9h1v1h-1z"/>
  <path fill="#385000" d="M24 9h1v1h-1z"/>
  <path fill="#b0f880" d="M25 9h1v1h-1z"/>
  <path fill="#388830" d="M26 9h1v1h-1z"/>
  <path fill="#18a068" d="M27 9h1v1h-1zM28 9h1v1h-1z"/>
  <path fill="#388830" d="M29 9h1v1h-1z"/>
  <path fill="#18a068" d="M30 9h1v1h-1z"/>
  <path fill="#40b080" d="M31 9h1v1h-1z"/>
  <path fill="#18a068" d="M2 10h1v1H2zM3 10h1v1H3zM4 10h1v1H4zM5 10h1v1H5z"/>
  <path fill="#385000" d="M6 10h1v1H6z"/>
  <path fill="#b0f880" d="M7 10h1v1H7zM8 10h1v1H8z"/>
  <path fill="#80c060" d="M9 10h1v1H9z"/>
  <path fill="#388830" d="M10 10h1v1h-1z"/>
  <path fill="#b0f880" d="M11 10h1v1h-1z"/>
  <path fill="#388830" d="M12 10h1v1h-1z"/>
  <path fill="#80c060" d="M13 10h1v1h-1z"/>
  <path fill="#b0f880" d="M14 10h1v1h-1zM15 10h1v1h-1zM16 10h1v1h-1zM17 10h1v1h-1zM18 10h1v1h-1zM19 10h1v1h-1zM20 10h1v1h-1z"/>
  <path fill="#80c060" d="M21 10h1v1h-1z"/>
  <path fill="#388830" d="M22 10h1v1h-1z"/>
  <path fill="#b0f880" d="M23 10h1v1h-1z"/>
  <path fill="#388830" d="M24 10h1v1h-1z"/>
  <path fill="#b0f880" d="M25 10h1v1h-1zM26 10h1v1h-1z"/>
  <path fill="#385000" d="M27 10h1v1h-1z"/>
  <path fill="#18a068" d="M28 10h1v1h-1zM29 10h1v1h-1zM30 10h1v1h-1zM31 10h1v1h-1z"/>
  <path fill="#40b080" d="M0 11h1v1H0zM1 11h1v1H1z"/>
  <path fill="#18a068" d="M2 11h1v1H2z"/>
  <path fill="#388830" d="M3 11h1v1H3z"/>
  <path fill="#18a068" d="M4 11h1v1H4zM5 11h1v1H5zM6 11h1v1H6z"/>
  <path fill="#385000" d="M7 11h1v1H7z"/>
  <path fill="#388830" d="M8 11h1v1H8z"/>
  <path fill="#b0f880" d="M9 11h1v1H9z"/>
  <path fill="#80c060" d="M10 11h1v1h-1z"/>
  <path fill="#385000" d="M11 11h1v1h-1z"/>
  <path fill="#388830" d="M12 11h1v1h-1z"/>
  <path fill="#b0f880" d="M13 11h1v1h-1zM14 11h1v1h-1z"/>
  <path fill="#80c060" d="M15 11h1v1h-1z"/>
  <path fill="#b0f880" d="M16 11h1v1h-1zM17 11h1v1h-1zM18 11h1v1h-1z"/>
  <path fill="#388830" d="M19 11h1v1h-1z"/>
  <path fill="#b0f880" d="M20 11h1v1h-1zM21 11h1v1h-1z"/>
  <path fill="#388830" d="M22 11h1v1h-1z"/>
  <path fill="#385000" d="M23 11h1v1h-1z"/>
  <path fill="#80c060" d="M24 11h1v1h-1z"/>
  <path fill="#388830" d="M25 11h1v1h-1z"/>
  <path fill="#385000" d="M26 11h1v1h-1z"/>
  <path fill="#18a068" d="M27 11h1v1h-1zM28 11h1v1h-1zM29 11h1v1h-1z"/>
  <path fill="#388830" d="M30 11h1v1h-1z"/>
  <path fill="#18a068" d="M31 11h1v1h-1z"/>
  <path fill="#40b080" d="M32 11h1v1h-1z"/>
  <path fill="#18a068" d="M0 12h1v1H0zM1 12h1v1H1z"/>
  <path fill="#388830" d="M2 12h1v1H2z"/>
  <path fill="#18a068" d="M3 12h1v1H3z"/>
  <path fill="#388830" d="M4 12h1v1H4z"/>
  <path fill="#18a068" d="M5 12h1v1H5z"/>
  <path fill="#385000" d="M6 12h1v1H6z"/>
  <path fill="#80c060" d="M7 12h1v1H7z"/>
  <path fill="#b0f880" d="M8 12h1v1H8z"/>
  <path fill="#80c060" d="M9 12h1v1H9z"/>
  <path fill="#388830" d="M10 12h1v1h-1zM11 12h1v1h-1z"/>
  <path fill="#385000" d="M12 12h1v1h-1zM13 12h1v1h-1z"/>
  <path fill="#b0f880" d="M14 12h1v1h-1z"/>
  <path fill="#388830" d="M15 12h1v1h-1z"/>
  <path fill="#b0f880" d="M16 12h1v1h-1zM17 12h1v1h-1zM18 12h1v1h-1z"/>
  <path fill="#388830" d="M19 12h1v1h-1z"/>
  <path fill="#b0f880" d="M20 12h1v1h-1z"/>
  <path fill="#385000" d="M21 12h1v1h-1zM22 12h1v1h-1z"/>
  <path fill="#388830" d="M23 12h1v1h-1zM24 12h1v1h-1z"/>
  <path fill="#b0f880" d="M25 12h1v1h-1z"/>
  <path fill="#80c060" d="M26 12h1v1h-1z"/>
  <path fill="#385000" d="M27 12h1v1h-1z"/>
  <path fill="#18a068" d="M28 12h1v1h-1z"/>
  <path fill="#388830" d="M29 12h1v1h-1z"/>
  <path fill="#18a068" d="M30 12h1v1h-1z"/>
  <path fill="#388830" d="M31 12h1v1h-1z"/>
  <path fill="#18a068" d="M32 12h1v1h-1zM0 13h1v1H0zM1 13h1v1H1zM2 13h1v1H2zM3 13h1v1H3zM4 13h1v1H4z"/>
  <path fill="#388830" d="M5 13h1v1H5zM6 13h1v1H6z"/>
  <path fill="#385000" d="M7 13h1v1H7z"/>
  <path fill="#388830" d="M8 13h1v1H8zM9 13h1v1H9zM10 13h1v1h-1z"/>
  <path fill="#80c060" d="M11 13h1v1h-1zM12 13h1v1h-1zM13 13h1v1h-1z"/>
  <path fill="#385000" d="M14 13h1v1h-1zM15 13h1v1h-1z"/>
  <path fill="#b0f880" d="M16 13h1v1h-1zM17 13h1v1h-1z"/>
  <path fill="#385000" d="M18 13h1v1h-1zM19 13h1v1h-1z"/>
  <path fill="#80c060" d="M20 13h1v1h-1zM21 13h1v1h-1zM22 13h1v1h-1z"/>
  <path fill="#388830" d="M23 13h1v1h-1zM24 13h1v1h-1zM25 13h1v1h-1z"/>
  <path fill="#385000" d="M26 13h1v1h-1z"/>
  <path fill="#388830" d="M27 13h1v1h-1zM28 13h1v1h-1z"/>
  <path fill="#18a068" d="M29 13h1v1h-1zM30 13h1v1h-1zM31 13h1v1h-1zM32 13h1v1h-1z"/>
  <path fill="#40b080" d="M0 14h1v1H0zM1 14h1v1H1z"/>
  <path fill="#18a068" d="M2 14h1v1H2zM3 14h1v1H3z"/>
  <path fill="#388830" d="M4 14h1v1H4z"/>
  <path fill="#80c060" d="M5 14h1v1H5zM6 14h1v1H6z"/>
  <path fill="#385000" d="M7 14h1v1H7zM8 14h1v1H8z"/>
  <path fill="#b0f880" d="M9 14h1v1H9zM10 14h1v1h-1zM11 14h1v1h-1z"/>
  <path fill="#80c060" d="M12 14h1v1h-1z"/>
  <path fill="#388830" d="M13 14h1v1h-1z"/>
  <path fill="#80c060" d="M14 14h1v1h-1zM15 14h1v1h-1z"/>
  <path fill="#385000" d="M16 14h1v1h-1zM17 14h1v1h-1z"/>
  <path fill="#80c060" d="M18 14h1v1h-1zM19 14h1v1h-1z"/>
  <path fill="#388830" d="M20 14h1v1h-1z"/>
  <path fill="#80c060" d="M21 14h1v1h-1z"/>
  <path fill="#b0f880" d="M22 14h1v1h-1zM23 14h1v1h-1zM24 14h1v1h-1z"/>
  <path fill="#385000" d="M25 14h1v1h-1zM26 14h1v1h-1z"/>
  <path fill="#80c060" d="M27 14h1v1h-1zM28 14h1v1h-1z"/>
  <path fill="#388830" d="M29 14h1v1h-1z"/>
  <path fill="#18a068" d="M30 14h1v1h-1zM31 14h1v1h-1z"/>
  <path fill="#40b080" d="M32 14h1v1h-1zM33 14h1v1h-1z"/>
  <path fill="#18a068" d="M2 15h1v1H2zM3 15h1v1H3zM4 15h1v1H4z"/>
  <path fill="#385000" d="M5 15h1v1H5z"/>
  <path fill="#80c060" d="M6 15h1v1H6z"/>
  <path fill="#385000" d="M7 15h1v1H7z"/>
  <path fill="#b0f880" d="M8 15h1v1H8zM9 15h1v1H9z"/>
  <path fill="#388830" d="M10 15h1v1h-1z"/>
  <path fill="#b0f880" d="M11 15h1v1h-1zM12 15h1v1h-1z"/>
  <path fill="#388830" d="M13 15h1v1h-1z"/>
  <path fill="#b0f880" d="M14 15h1v1h-1z"/>
  <path fill="#80c060" d="M15 15h1v1h-1zM16 15h1v1h-1zM17 15h1v1h-1zM18 15h1v1h-1z"/>
  <path fill="#b0f880" d="M19 15h1v1h-1z"/>
  <path fill="#388830" d="M20 15h1v1h-1z"/>
  <path fill="#b0f880" d="M21 15h1v1h-1zM22 15h1v1h-1z"/>
  <path fill="#388830" d="M23 15h1v1h-1z"/>
  <path fill="#b0f880" d="M24 15h1v1h-1zM25 15h1v1h-1z"/>
  <path fill="#385000" d="M26 15h1v1h-1z"/>
  <path fill="#80c060" d="M27 15h1v1h-1z"/>
  <path fill="#385000" d="M28 15h1v1h-1z"/>
  <path fill="#18a068" d="M29 15h1v1h-1zM30 15h1v1h-1zM31 15h1v1h-1z"/>
  <path fill="#40b080" d="M2 16h1v1H2z"/>
  <path fill="#18a068" d="M3 16h1v1H3z"/>
  <path fill="#385000" d="M4 16h1v1H4z"/>
  <path fill="#80c060" d="M5 16h1v1H5zM6 16h1v1H6zM7 16h1v1H7z"/>
  <path fill="#385000" d="M8 16h1v1H8zM9 16h1v1H9z"/>
  <path fill="#b0f880" d="M10 16h1v1h-1zM11 16h1v1h-1z"/>
  <path fill="#388830" d="M12 16h1v1h-1z"/>
  <path fill="#385000" d="M13 16h1v1h-1z"/>
  <path fill="#b0f880" d="M14 16h1v1h-1z"/>
  <path fill="#388830" d="M15 16h1v1h-1z"/>
  <path fill="#b0f880" d="M16 16h1v1h-1zM17 16h1v1h-1z"/>
  <path fill="#388830" d="M18 16h1v1h-1z"/>
  <path fill="#b0f880" d="M19 16h1v1h-1z"/>
  <path fill="#385000" d="M20 16h1v1h-1z"/>
  <path fill="#388830" d="M21 16h1v1h-1z"/>
  <path fill="#b0f880" d="M22 16h1v1h-1zM23 16h1v1h-1z"/>
  <path fill="#385000" d="M24 16h1v1h-1zM25 16h1v1h-1z"/>
  <path fill="#80c060" d="M26 16h1v1h-1zM27 16h1v1h-1zM28 16h1v1h-1z"/>
  <path fill="#385000" d="M29 16h1v1h-1z"/>
  <path fill="#18a068" d="M30 16h1v1h-1z"/>
  <path fill="#40b080" d="M31 16h1v1h-1zM3 17h1v1H3z"/>
  <path fill="#385000" d="M4 17h1v1H4z"/>
  <path fill="#388830" d="M5 17h1v1H5z"/>
  <path fill="#385000" d="M6 17h1v1H6z"/>
  <path fill="#388830" d="M7 17h1v1H7z"/>
  <path fill="#80c060" d="M8 17h1v1H8z"/>
  <path fill="#388830" d="M9 17h1v1H9z"/>
  <path fill="#385000" d="M10 17h1v1h-1z"/>
  <path fill="#b0f880" d="M11 17h1v1h-1z"/>
  <path fill="#385000" d="M12 17h1v1h-1zM13 17h1v1h-1zM14 17h1v1h-1z"/>
  <path fill="#80c060" d="M15 17h1v1h-1z"/>
  <path fill="#b0f880" d="M16 17h1v1h-1zM17 17h1v1h-1z"/>
  <path fill="#80c060" d="M18 17h1v1h-1z"/>
  <path fill="#385000" d="M19 17h1v1h-1zM20 17h1v1h-1zM21 17h1v1h-1z"/>
  <path fill="#b0f880" d="M22 17h1v1h-1z"/>
  <path fill="#385000" d="M23 17h1v1h-1z"/>
  <path fill="#388830" d="M24 17h1v1h-1z"/>
  <path fill="#80c060" d="M25 17h1v1h-1z"/>
  <path fill="#388830" d="M26 17h1v1h-1z"/>
  <path fill="#385000" d="M27 17h1v1h-1z"/>
  <path fill="#388830" d="M28 17h1v1h-1z"/>
  <path fill="#385000" d="M29 17h1v1h-1z"/>
  <path fill="#40b080" d="M30 17h1v1h-1z"/>
  <path fill="#385000" d="M3 18h1v1H3zM4 18h1v1H4zM5 18h1v1H5z"/>
  <path fill="#80c060" d="M6 18h1v1H6zM7 18h1v1H7zM8 18h1v1H8zM9 18h1v1H9z"/>
  <path fill="#388830" d="M10 18h1v1h-1z"/>
  <path fill="#385000" d="M11 18h1v1h-1z"/>
  <path fill="#388830" d="M12 18h1v1h-1zM13 18h1v1h-1z"/>
  <path fill="#385000" d="M14 18h1v1h-1z"/>
  <path fill="#b0f880" d="M15 18h1v1h-1zM16 18h1v1h-1zM17 18h1v1h-1zM18 18h1v1h-1z"/>
  <path fill="#385000" d="M19 18h1v1h-1z"/>
  <path fill="#388830" d="M20 18h1v1h-1zM21 18h1v1h-1z"/>
  <path fill="#385000" d="M22 18h1v1h-1z"/>
  <path fill="#388830" d="M23 18h1v1h-1z"/>
  <path fill="#80c060" d="M24 18h1v1h-1zM25 18h1v1h-1zM26 18h1v1h-1zM27 18h1v1h-1z"/>
  <path fill="#385000" d="M28 18h1v1h-1zM29 18h1v1h-1z"/>
  <path fill="#18a068" d="M30 18h1v1h-1z"/>
  <path fill="#40b080" d="M2 19h1v1H2z"/>
  <path fill="#18a068" d="M3 19h1v1H3z"/>
  <path fill="#385000" d="M4 19h1v1H4zM5 19h1v1H5zM6 19h1v1H6z"/>
  <path fill="#388830" d="M7 19h1v1H7z"/>
  <path fill="#80c060" d="M8 19h1v1H8zM9 19h1v1H9z"/>
  <path fill="#388830" d="M10 19h1v1h-1zM11 19h1v1h-1zM12 19h1v1h-1zM13 19h1v1h-1zM14 19h1v1h-1z"/>
  <path fill="#385000" d="M15 19h1v1h-1z"/>
  <path fill="#b0f880" d="M16 19h1v1h-1zM17 19h1v1h-1z"/>
  <path fill="#385000" d="M18 19h1v1h-1z"/>
  <path fill="#388830" d="M19 19h1v1h-1zM20 19h1v1h-1zM21 19h1v1h-1zM22 19h1v1h-1zM23 19h1v1h-1z"/>
  <path fill="#80c060" d="M24 19h1v1h-1zM25 19h1v1h-1z"/>
  <path fill="#388830" d="M26 19h1v1h-1z"/>
  <path fill="#385000" d="M27 19h1v1h-1zM28 19h1v1h-1zM29 19h1v1h-1z"/>
  <path fill="#40b080" d="M30 19h1v1h-1zM31 19h1v1h-1zM0 20h1v1H0zM1 20h1v1H1z"/>
  <path fill="#18a068" d="M2 20h1v1H2z"/>
  <path fill="#385000" d="M3 20h1v1H3z"/>
  <path fill="#80c060" d="M4 20h1v1H4zM5 20h1v1H5z"/>
  <path fill="#385000" d="M6 20h1v1H6z"/>
  <path fill="#80c060" d="M7 20h1v1H7zM8 20h1v1H8z"/>
  <path fill="#388830" d="M9 20h1v1H9zM10 20h1v1h-1z"/>
  <path fill="#80c060" d="M11 20h1v1h-1zM12 20h1v1h-1z"/>
  <path fill="#388830" d="M13 20h1v1h-1z"/>
  <path fill="#385000" d="M14 20h1v1h-1z"/>
  <path fill="#388830" d="M15 20h1v1h-1z"/>
  <path fill="#385000" d="M16 20h1v1h-1zM17 20h1v1h-1z"/>
  <path fill="#388830" d="M18 20h1v1h-1z"/>
  <path fill="#385000" d="M19 20h1v1h-1z"/>
  <path fill="#388830" d="M20 20h1v1h-1z"/>
  <path fill="#80c060" d="M21 20h1v1h-1zM22 20h1v1h-1z"/>
  <path fill="#388830" d="M23 20h1v1h-1zM24 20h1v1h-1z"/>
  <path fill="#80c060" d="M25 20h1v1h-1zM26 20h1v1h-1z"/>
  <path fill="#385000" d="M27 20h1v1h-1z"/>
  <path fill="#80c060" d="M28 20h1v1h-1zM29 20h1v1h-1z"/>
  <path fill="#385000" d="M30 20h1v1h-1z"/>
  <path fill="#18a068" d="M31 20h1v1h-1z"/>
  <path fill="#40b080" d="M32 20h1v1h-1zM0 21h1v1H0zM1 21h1v1H1z"/>
  <path fill="#385000" d="M2 21h1v1H2z"/>
  <path fill="#80c060" d="M3 21h1v1H3z"/>
  <path fill="#388830" d="M4 21h1v1H4zM5 21h1v1H5zM6 21h1v1H6z"/>
  <path fill="#385000" d="M7 21h1v1H7z"/>
  <path fill="#388830" d="M8 21h1v1H8z"/>
  <path fill="#385000" d="M9 21h1v1H9z"/>
  <path fill="#80c060" d="M10 21h1v1h-1zM11 21h1v1h-1zM12 21h1v1h-1zM13 21h1v1h-1z"/>
  <path fill="#385000" d="M14 21h1v1h-1z"/>
  <path fill="#388830" d="M15 21h1v1h-1z"/>
  <path fill="#80c060" d="M16 21h1v1h-1zM17 21h1v1h-1z"/>
  <path fill="#388830" d="M18 21h1v1h-1z"/>
  <path fill="#385000" d="M19 21h1v1h-1z"/>
  <path fill="#80c060" d="M20 21h1v1h-1zM21 21h1v1h-1zM22 21h1v1h-1zM23 21h1v1h-1z"/>
  <path fill="#385000" d="M24 21h1v1h-1zM25 21h1v1h-1z"/>
  <path fill="#388830" d="M26 21h1v1h-1z"/>
  <path fill="#385000" d="M27 21h1v1h-1z"/>
  <path fill="#388830" d="M28 21h1v1h-1zM29 21h1v1h-1zM30 21h1v1h-1z"/>
  <path fill="#80c060" d="M31 21h1v1h-1z"/>
  <path fill="#385000" d="M32 21h1v1h-1z"/>
  <path fill="#40b080" d="M0 22h1v1H0zM1 22h1v1H1z"/>
  <path fill="#18a068" d="M2 22h1v1H2z"/>
  <path fill="#385000" d="M3 22h1v1H3zM4 22h1v1H4z"/>
  <path fill="#388830" d="M5 22h1v1H5zM6 22h1v1H6zM7 22h1v1H7z"/>
  <path fill="#385000" d="M8 22h1v1H8zM9 22h1v1H9z"/>
  <path fill="#80c060" d="M10 22h1v1h-1zM11 22h1v1h-1zM12 22h1v1h-1z"/>
  <path fill="#385000" d="M13 22h1v1h-1z"/>
  <path fill="#388830" d="M14 22h1v1h-1zM15 22h1v1h-1z"/>
  <path fill="#80c060" d="M16 22h1v1h-1zM17 22h1v1h-1z"/>
  <path fill="#388830" d="M18 22h1v1h-1zM19 22h1v1h-1z"/>
  <path fill="#385000" d="M20 22h1v1h-1z"/>
  <path fill="#80c060" d="M21 22h1v1h-1zM22 22h1v1h-1zM23 22h1v1h-1z"/>
  <path fill="#385000" d="M24 22h1v1h-1zM25 22h1v1h-1zM26 22h1v1h-1z"/>
  <path fill="#388830" d="M27 22h1v1h-1zM28 22h1v1h-1zM29 22h1v1h-1z"/>
  <path fill="#385000" d="M30 22h1v1h-1zM31 22h1v1h-1z"/>
  <path fill="#40b080" d="M2 23h1v1H2z"/>
  <path fill="#385000" d="M3 23h1v1H3z"/>
  <path fill="#80c060" d="M4 23h1v1H4zM5 23h1v1H5z"/>
  <path fill="#388830" d="M6 23h1v1H6z"/>
  <path fill="#385000" d="M7 23h1v1H7zM8 23h1v1H8zM9 23h1v1H9zM10 23h1v1h-1z"/>
  <path fill="#80c060" d="M11 23h1v1h-1z"/>
  <path fill="#385000" d="M12 23h1v1h-1z"/>
  <path fill="#388830" d="M13 23h1v1h-1z"/>
  <path fill="#385000" d="M14 23h1v1h-1z"/>
  <path fill="#80c060" d="M15 23h1v1h-1zM16 23h1v1h-1zM17 23h1v1h-1zM18 23h1v1h-1z"/>
  <path fill="#385000" d="M19 23h1v1h-1z"/>
  <path fill="#388830" d="M20 23h1v1h-1z"/>
  <path fill="#385000" d="M21 23h1v1h-1z"/>
  <path fill="#80c060" d="M22 23h1v1h-1z"/>
  <path fill="#385000" d="M23 23h1v1h-1zM24 23h1v1h-1zM25 23h1v1h-1zM26 23h1v1h-1zM27 23h1v1h-1z"/>
  <path fill="#388830" d="M28 23h1v1h-1z"/>
  <path fill="#80c060" d="M29 23h1v1h-1zM30 23h1v1h-1z"/>
  <path fill="#385000" d="M31 23h1v1h-1z"/>
  <path fill="#40b080" d="M3 24h1v1H3z"/>
  <path fill="#385000" d="M4 24h1v1H4zM5 24h1v1H5zM6 24h1v1H6z"/>
  <path fill="#388830" d="M7 24h1v1H7zM8 24h1v1H8zM9 24h1v1H9zM10 24h1v1h-1z"/>
  <path fill="#385000" d="M11 24h1v1h-1zM12 24h1v1h-1zM13 24h1v1h-1z"/>
  <path fill="#388830" d="M14 24h1v1h-1z"/>
  <path fill="#385000" d="M15 24h1v1h-1z"/>
  <path fill="#80c060" d="M16 24h1v1h-1zM17 24h1v1h-1z"/>
  <path fill="#385000" d="M18 24h1v1h-1z"/>
  <path fill="#388830" d="M19 24h1v1h-1z"/>
  <path fill="#385000" d="M20 24h1v1h-1zM21 24h1v1h-1zM22 24h1v1h-1z"/>
  <path fill="#388830" d="M23 24h1v1h-1zM24 24h1v1h-1zM25 24h1v1h-1zM26 24h1v1h-1zM27 24h1v1h-1z"/>
  <path fill="#385000" d="M28 24h1v1h-1zM29 24h1v1h-1zM30 24h1v1h-1z"/>
  <path fill="#40b080" d="M2 25h1v1H2z"/>
  <path fill="#18a068" d="M3 25h1v1H3zM4 25h1v1H4zM5 25h1v1H5z"/>
  <path fill="#385000" d="M6 25h1v1H6z"/>
  <path fill="#388830" d="M7 25h1v1H7zM8 25h1v1H8z"/>
  <path fill="#385000" d="M9 25h1v1H9zM10 25h1v1h-1z"/>
  <path fill="#388830" d="M11 25h1v1h-1zM12 25h1v1h-1z"/>
  <path fill="#385000" d="M13 25h1v1h-1zM14 25h1v1h-1zM15 25h1v1h-1z"/>
  <path fill="#388830" d="M16 25h1v1h-1zM17 25h1v1h-1z"/>
  <path fill="#385000" d="M18 25h1v1h-1zM19 25h1v1h-1zM20 25h1v1h-1z"/>
  <path fill="#388830" d="M21 25h1v1h-1zM22 25h1v1h-1z"/>
  <path fill="#385000" d="M23 25h1v1h-1zM24 25h1v1h-1zM25 25h1v1h-1z"/>
  <path fill="#388830" d="M26 25h1v1h-1zM27 25h1v1h-1z"/>
  <path fill="#385000" d="M28 25h1v1h-1z"/>
  <path fill="#18a068" d="M2 26h1v1H2zM3 26h1v1H3zM4 26h1v1H4zM5 26h1v1H5zM6 26h1v1H6z"/>
  <path fill="#385000" d="M7 26h1v1H7zM8 26h1v1H8zM9 26h1v1H9z"/>
  <path fill="#388830" d="M10 26h1v1h-1zM11 26h1v1h-1z"/>
  <path fill="#385000" d="M12 26h1v1h-1zM13 26h1v1h-1z"/>
  <path fill="#388830" d="M14 26h1v1h-1zM15 26h1v1h-1z"/>
  <path fill="#385000" d="M16 26h1v1h-1zM17 26h1v1h-1z"/>
  <path fill="#388830" d="M18 26h1v1h-1zM19 26h1v1h-1z"/>
  <path fill="#385000" d="M20 26h1v1h-1zM21 26h1v1h-1z"/>
  <path fill="#388830" d="M22 26h1v1h-1zM23 26h1v1h-1z"/>
  <path fill="#385000" d="M24 26h1v1h-1zM25 26h1v1h-1zM26 26h1v1h-1zM27 26h1v1h-1z"/>
  <path fill="#40b080" d="M0 27h1v1H0zM1 27h1v1H1z"/>
  <path fill="#18a068" d="M2 27h1v1H2zM3 27h1v1H3zM4 27h1v1H4zM5 27h1v1H5zM6 27h1v1H6z"/>
  <path fill="#385000" d="M7 27h1v1H7z"/>
  <path fill="#388830" d="M8 27h1v1H8zM9 27h1v1H9zM10 27h1v1h-1zM11 27h1v1h-1z"/>
  <path fill="#385000" d="M12 27h1v1h-1z"/>
  <path fill="#388830" d="M13 27h1v1h-1zM14 27h1v1h-1zM15 27h1v1h-1zM16 27h1v1h-1zM17 27h1v1h-1zM18 27h1v1h-1zM19 27h1v1h-1zM20 27h1v1h-1z"/>
  <path fill="#385000" d="M21 27h1v1h-1z"/>
  <path fill="#388830" d="M22 27h1v1h-1zM23 27h1v1h-1zM24 27h1v1h-1zM25 27h1v1h-1zM26 27h1v1h-1z"/>
  <path fill="#385000" d="M27 27h1v1h-1z"/>
  <path fill="#18a068" d="M0 28h1v1H0zM1 28h1v1H1zM2 28h1v1H2z"/>
  <path fill="#388830" d="M3 28h1v1H3z"/>
  <path fill="#18a068" d="M4 28h1v1H4z"/>
  <path fill="#388830" d="M5 28h1v1H5z"/>
  <path fill="#18a068" d="M6 28h1v1H6zM7 28h1v1H7z"/>
  <path fill="#385000" d="M8 28h1v1H8zM9 28h1v1H9z"/>
  <path fill="#388830" d="M10 28h1v1h-1z"/>
  <path fill="#385000" d="M11 28h1v1h-1z"/>
  <path fill="#388830" d="M12 28h1v1h-1z"/>
  <path fill="#385000" d="M13 28h1v1h-1z"/>
  <path fill="#388830" d="M14 28h1v1h-1zM15 28h1v1h-1zM16 28h1v1h-1zM17 28h1v1h-1zM18 28h1v1h-1zM19 28h1v1h-1z"/>
  <path fill="#385000" d="M20 28h1v1h-1z"/>
  <path fill="#388830" d="M21 28h1v1h-1z"/>
  <path fill="#385000" d="M22 28h1v1h-1z"/>
  <path fill="#388830" d="M23 28h1v1h-1z"/>
  <path fill="#385000" d="M24 28h1v1h-1zM25 28h1v1h-1zM26 28h1v1h-1z"/>
  <path fill="#388830" d="M27 28h1v1h-1z"/>
  <path fill="#18a068" d="M0 29h1v1H0zM1 29h1v1H1zM2 29h1v1H2zM3 29h1v1H3z"/>
  <path fill="#388830" d="M4 29h1v1H4z"/>
  <path fill="#18a068" d="M5 29h1v1H5zM6 29h1v1H6z"/>
  <path fill="#388830" d="M7 29h1v1H7z"/>
  <path fill="#385000" d="M8 29h1v1H8zM9 29h1v1H9zM10 29h1v1h-1zM11 29h1v1h-1zM12 29h1v1h-1z"/>
  <path fill="#388830" d="M13 29h1v1h-1zM14 29h1v1h-1zM15 29h1v1h-1z"/>
  <path fill="#385000" d="M16 29h1v1h-1z"/>
  <path fill="#388830" d="M17 29h1v1h-1zM18 29h1v1h-1zM19 29h1v1h-1zM20 29h1v1h-1z"/>
  <path fill="#385000" d="M21 29h1v1h-1zM22 29h1v1h-1zM23 29h1v1h-1zM24 29h1v1h-1zM25 29h1v1h-1zM26 29h1v1h-1zM27 29h1v1h-1z"/>
  <path fill="#388830" d="M28 29h1v1h-1z"/>
  <path fill="#40b080" d="M0 30h1v1H0zM1 30h1v1H1z"/>
  <path fill="#18a068" d="M2 30h1v1H2zM3 30h1v1H3zM4 30h1v1H4zM5 30h1v1H5z"/>
  <path fill="#388830" d="M6 30h1v1H6z"/>
  <path fill="#385000" d="M7 30h1v1H7zM8 30h1v1H8zM9 30h1v1H9zM10 30h1v1h-1zM11 30h1v1h-1zM12 30h1v1h-1z"/>
  <path fill="#403830" d="M13 30h1v1h-1z"/>
  <path fill="#385000" d="M14 30h1v1h-1z"/>
  <path fill="#388830" d="M15 30h1v1h-1z"/>
  <path fill="#385000" d="M16 30h1v1h-1zM17 30h1v1h-1z"/>
  <path fill="#388830" d="M18 30h1v1h-1z"/>
  <path fill="#385000" d="M19 30h1v1h-1z"/>
  <path fill="#403830" d="M20 30h1v1h-1z"/>
  <path fill="#385000" d="M21 30h1v1h-1zM22 30h1v1h-1zM23 30h1v1h-1zM24 30h1v1h-1zM25 30h1v1h-1zM26 30h1v1h-1zM27 30h1v1h-1zM28 30h1v1h-1z"/>
  <path fill="#388830" d="M29 30h1v1h-1z"/>
  <path fill="#18a068" d="M2 31h1v1H2zM3 31h1v1H3z"/>
  <path fill="#388830" d="M4 31h1v1H4z"/>
  <path fill="#18a068" d="M5 31h1v1H5z"/>
  <path fill="#388830" d="M6 31h1v1H6z"/>
  <path fill="#385000" d="M7 31h1v1H7zM8 31h1v1H8zM9 31h1v1H9zM10 31h1v1h-1zM11 31h1v1h-1z"/>
  <path fill="#403830" d="M12 31h1v1h-1zM13 31h1v1h-1z"/>
  <path fill="#685858" d="M14 31h1v1h-1zM15 31h1v1h-1zM16 31h1v1h-1zM17 31h1v1h-1zM18 31h1v1h-1zM19 31h1v1h-1z"/>
  <path fill="#403830" d="M20 31h1v1h-1zM21 31h1v1h-1z"/>
  <path fill="#385000" d="M22 31h1v1h-1zM23 31h1v1h-1zM24 31h1v1h-1zM25 31h1v1h-1zM26 31h1v1h-1zM27 31h1v1h-1zM28 31h1v1h-1z"/>
  <path fill="#388830" d="M29 31h1v1h-1z"/>
  <path fill="#40b080" d="M2 32h1v1H2z"/>
  <path fill="#18a068" d="M3 32h1v1H3zM4 32h1v1H4zM5 32h1v1H5z"/>
  <path fill="#388830" d="M6 32h1v1H6z"/>
  <path fill="#385000" d="M7 32h1v1H7zM8 32h1v1H8zM9 32h1v1H9zM10 32h1v1h-1zM11 32h1v1h-1zM12 32h1v1h-1z"/>
  <path fill="#403830" d="M13 32h1v1h-1z"/>
  <path fill="#685858" d="M14 32h1v1h-1zM15 32h1v1h-1zM16 32h1v1h-1zM17 32h1v1h-1zM18 32h1v1h-1zM19 32h1v1h-1z"/>
  <path fill="#403830" d="M20 32h1v1h-1z"/>
  <path fill="#385000" d="M21 32h1v1h-1zM22 32h1v1h-1zM23 32h1v1h-1zM24 32h1v1h-1zM25 32h1v1h-1zM26 32h1v1h-1zM27 32h1v1h-1zM28 32h1v1h-1z"/>
  <path fill="#388830" d="M29 32h1v1h-1z"/>
  <path fill="#40b080" d="M3 33h1v1H3z"/>
  <path fill="#18a068" d="M4 33h1v1H4zM5 33h1v1H5zM6 33h1v1H6z"/>
  <path fill="#388830" d="M7 33h1v1H7z"/>
  <path fill="#385000" d="M8 33h1v1H8zM9 33h1v1H9zM10 33h1v1h-1zM11 33h1v1h-1zM12 33h1v1h-1zM13 33h1v1h-1z"/>
  <path fill="#403830" d="M14 33h1v1h-1zM15 33h1v1h-1z"/>
  <path fill="#685858" d="M16 33h1v1h-1zM17 33h1v1h-1z"/>
  <path fill="#403830" d="M18 33h1v1h-1zM19 33h1v1h-1z"/>
  <path fill="#385000" d="M20 33h1v1h-1zM21 33h1v1h-1zM22 33h1v1h-1zM23 33h1v1h-1zM24 33h1v1h-1zM25 33h1v1h-1zM26 33h1v1h-1zM27 33h1v1h-1z"/>
  <path fill="#388830" d="M28 33h1v1h-1z"/>
  <path fill="#40b080" d="M5 34h1v1H5z"/>
  <path fill="#18a068" d="M6 34h1v1H6zM7 34h1v1H7z"/>
  <path fill="#388830" d="M8 34h1v1H8zM9 34h1v1H9z"/>
  <path fill="#385000" d="M10 34h1v1h-1zM11 34h1v1h-1zM12 34h1v1h-1zM13 34h1v1h-1zM14 34h1v1h-1zM15 34h1v1h-1z"/>
  <path fill="#403830" d="M16 34h1v1h-1zM17 34h1v1h-1z"/>
  <path fill="#385000" d="M18 34h1v1h-1zM19 34h1v1h-1zM20 34h1v1h-1zM21 34h1v1h-1zM22 34h1v1h-1zM23 34h1v1h-1zM24 34h1v1h-1zM25 34h1v1h-1z"/>
  <path fill="#388830" d="M26 34h1v1h-1zM27 34h1v1h-1z"/>
  <path fill="#18a068" d="M5 35h1v1H5z"/>
  <path fill="#40b080" d="M7 35h1v1H7z"/>
  <path fill="#18a068" d="M8 35h1v1H8zM9 35h1v1H9z"/>
  <path fill="#388830" d="M10 35h1v1h-1zM11 35h1v1h-1zM12 35h1v1h-1z"/>
  <path fill="#385000" d="M13 35h1v1h-1zM14 35h1v1h-1zM15 35h1v1h-1zM16 35h1v1h-1zM17 35h1v1h-1zM18 35h1v1h-1zM19 35h1v1h-1zM20 35h1v1h-1zM21 35h1v1h-1z"/>
  <path fill="#388830" d="M22 35h1v1h-1zM23 35h1v1h-1zM24 35h1v1h-1zM25 35h1v1h-1z"/>
  <path fill="#40b080" d="M7 36h1v1H7zM11 36h1v1h-1z"/>
  <path fill="#18a068" d="M12 36h1v1h-1z"/>
  <path fill="#388830" d="M13 36h1v1h-1zM14 36h1v1h-1zM15 36h1v1h-1zM16 36h1v1h-1zM17 36h1v1h-1zM18 36h1v1h-1zM19 36h1v1h-1zM20 36h1v1h-1zM21 36h1v1h-1z"/>
</svg>
